<?xml version="1.0" encoding="UTF-8" standalone="no"?>
<!-- Created with Inkscape (http://www.inkscape.org/) -->

<svg
   width="361.42084mm"
   height="203.2mm"
   viewBox="0 0 361.42084 203.2"
   version="1.1"
   id="svg5"
   inkscape:version="1.4 (e7c3feb100, 2024-10-09)"
   sodipodi:docname="single-zariep.svg"
   inkscape:export-filename="../../../wallpaper.png"
   inkscape:export-xdpi="138.875"
   inkscape:export-ydpi="138.875"
   xmlns:inkscape="http://www.inkscape.org/namespaces/inkscape"
   xmlns:sodipodi="http://sodipodi.sourceforge.net/DTD/sodipodi-0.dtd"
   xmlns="http://www.w3.org/2000/svg"
   xmlns:svg="http://www.w3.org/2000/svg">
  <sodipodi:namedview
     id="namedview7"
     pagecolor="#505050"
     bordercolor="#ffffff"
     borderopacity="1"
     inkscape:pageshadow="0"
     inkscape:pageopacity="0"
     inkscape:pagecheckerboard="1"
     inkscape:document-units="mm"
     showgrid="false"
     inkscape:snap-page="false"
     inkscape:zoom="0.34956076"
     inkscape:cx="891.11833"
     inkscape:cy="497.76754"
     inkscape:window-width="1402"
     inkscape:window-height="867"
     inkscape:window-x="0"
     inkscape:window-y="0"
     inkscape:window-maximized="1"
     inkscape:current-layer="layer1"
     inkscape:snap-global="false"
     showguides="false"
     inkscape:snap-object-midpoints="true"
     inkscape:showpageshadow="0"
     inkscape:deskcolor="#d1d1d1" />
  <defs
     id="defs2" />
  <g
     inkscape:label="Layer 1"
     inkscape:groupmode="layer"
     id="layer1"
     transform="translate(75.732155,-46.66087)">
    <path
       style="fill:#5c6a3e;fill-opacity:1;stroke:none;stroke-width:10.2897;stroke-opacity:1"
       d="m 351.36094,714.56986 c -110.21914,0.54709 -238.44007,11.4507 -343.1143925,48.83749 -22.5074625,6.49493 4.6947405,7.45764 22.4294435,4.73588 252.589389,-0.58907 524.707849,2.95624 777.269449,-0.65386 4.01362,-5.74668 -30.16541,-7.57052 -34.07967,-9.69936 -95.90082,-21.33209 -193.92493,-32.40004 -291.81289,-39.71607 -43.50883,-2.62048 -87.10777,-3.61946 -130.69194,-3.50408 z"
       id="path37332"
       sodipodi:nodetypes="ccccccc"
       transform="matrix(0.26458333,0,0,0.26458333,-75.732155,46.66087)" />
    <path
       style="fill:none;stroke:#000000;stroke-width:0.264583px;stroke-linecap:butt;stroke-linejoin:miter;stroke-opacity:1"
       d="M -75.732155,249.86086 181.43654,249.66033"
       id="path179" />
    <path
       style="fill:none;stroke:#000000;stroke-width:0.264583px;stroke-linecap:butt;stroke-linejoin:miter;stroke-opacity:0"
       d="M 134.86821,250.36959 C 147.44375,246.9067 -6.6763071,218.96955 -75.732155,249.86086"
       id="path442"
       sodipodi:nodetypes="cc" />
    <path
       style="fill:none;stroke:#000000;stroke-width:0.264583px;stroke-linecap:butt;stroke-linejoin:miter;stroke-opacity:1"
       d="m 286.00961,74.2734 c 0,0 -295.4771236,59.99985 -343.079813,-27.61253"
       id="path796"
       sodipodi:nodetypes="cc" />
    <path
       style="fill:#1a1a1a;fill-opacity:1;stroke-width:14.5519"
       d="M -0.05560051,0.38075326 -0.31954158,670.71777 C 16.860062,663.22675 36.88155,640.6239 57.666681,636.26111 179.50002,603.88067 305.54181,623.6375 431.04626,620.71559 c 243.03436,25.3092 495.28652,22.83873 740.50084,44.52093 65.3629,10.72221 134.9591,28.84454 196.0594,55.41283 6.7717,-12.09385 -3.7108,-53.64076 -1.1156,-67.98168 1.0376,-178.18512 4.1878,-366.23544 -0.5436,-544.36227 2.9386,-15.031637 -14.0921,-1.39674 -23.3805,1.28871 -191.4236,35.67839 -385.46509,58.5592 -579.95726,67.96024 -118.7453,1.16863 -238.41085,4.09091 -356.29494,-11.73528 C 302.88989,149.08481 192.60841,126.22778 112.41193,53.967171 95.424169,38.887672 85.488357,16.502369 70.853119,-0.47023381 48.359188,0.68647379 21.305848,-3.4523961 -0.05560051,0.38075326 Z"
       id="path9580"
       sodipodi:nodetypes="cccccccccccccc"
       transform="matrix(0.26458333,0,0,0.26458333,-75.732155,46.66087)" />
    <path
       style="fill:none;stroke:#000000;stroke-width:0.264583px;stroke-linecap:butt;stroke-linejoin:miter;stroke-opacity:1"
       d="m 262.1951,47.120596 c 0,1.114093 -140.32131,29.570414 -185.655633,-0.526355"
       id="path850"
       sodipodi:nodetypes="cc" />
    <path
       style="fill:#91a666;fill-opacity:1;stroke:none;stroke-width:7.27595;stroke-opacity:1"
       d="M 323.82168,0.63195396 71.649999,0.25639095 C 69.390913,6.9591914 81.82854,15.832801 85.324375,22.898622 133.85714,87.010421 211.20674,120.15712 286.52933,141.27172 c 90.11653,24.16709 183.5785,34.83955 276.72162,36.76045 85.2284,-0.2217 170.53041,0.25172 255.6967,-3.0979 182.58285,-12.37767 366.81265,-36.49516 546.65485,-70.31063 3.2103,-15.215458 -0.1592,-31.868881 0.895,-47.878889 0.1727,-18.346189 -1.1801,-36.576841 -1.0074,-54.923029 -11.2127,-3.8275295 -25.4104,-0.4929293 -37.7513,-1.61342432 -25.1795,-0.4674286 -50.6017,-0.18357492 -74.8954,7.26570522 C 1131.4381,30.762762 1008.51,47.276899 884.84498,50.404507 799.24457,51.26733 711.4862,51.52667 629.2708,24.812135 609.52933,18.979617 591.71899,7.6146464 573.00572,0.15176303 Z"
       id="path46565"
       transform="matrix(0.26458333,0,0,0.26458333,-75.732155,46.66087)"
       sodipodi:nodetypes="ccccccccccccccc" />
    <path
       style="fill:#91a666;fill-opacity:1;stroke:none;stroke-width:10.2897;stroke-opacity:1"
       d="m 87.159958,628.72801 c -31.198575,8.06054 -65.420095,17.00504 -87.47949958,41.98976 1.50646828,31.8137 -5.07428882,65.69725 0.23113942,97.07765 C 139.95295,737.81015 340.87163,720.52993 461.04604,718.05265 c 107.52853,6.53396 215.32473,17.30619 320.17821,42.68598 20.4004,9.76219 44.54854,3.77614 66.49351,6.11999 172.07394,1.69189 344.16074,1.27957 516.24044,1.90849 3.3465,-20.20893 1.6186,-43.31669 2.2336,-64.60596 C 1202.6962,628.79611 423.99904,584.72418 87.159958,628.72801 Z"
       id="path46641"
       sodipodi:nodetypes="ccccccccc"
       transform="matrix(0.26458333,0,0,0.26458333,-75.732155,46.66087)" />
    <path
       style="fill:#5c6a3e;fill-opacity:1;stroke:none;stroke-width:5.14487;stroke-opacity:1"
       d="M 812.82391,-0.3095559 C 737.68051,0.07277519 663.06844,-1.5667502 587.94544,0.24404928 585.19636,-0.63086457 570.28135,-1.2393359 574.18201,0.97915101 617.48057,25.99699 677.18598,39.273944 726.14661,45.779598 c 61.74274,7.84219 124.12372,5.280423 186.1826,4.626887 119.64319,-5.67548 264.88669,-25.739455 382.17299,-49.95869381 3.0281,-1.15952585 5.3291,1.00362591 0.024,-0.78736904 -153.4385,-0.77527095 -328.2623,0.11160928 -481.70269,0.030022 z"
       id="path46719"
       transform="matrix(0.26458333,0,0,0.26458333,-75.732155,46.66087)"
       sodipodi:nodetypes="cccccccc" />
    <path
       style="fill:none;stroke:#000000;stroke-width:0.264583px;stroke-linecap:butt;stroke-linejoin:miter;stroke-opacity:1"
       d="M 285.68867,46.66087 V 249.86086 H -75.732155 V 46.66087 H 285.68867"
       id="path1039" />
    <g
       id="text1"
       style="font-weight:600;font-size:69.6054px;line-height:1;font-family:'URW Gothic';-inkscape-font-specification:'URW Gothic, Semi-Bold';text-align:center;letter-spacing:-5.29167px;text-anchor:middle;fill:#dddddd;stroke:#1a1a1a;stroke-width:3.30827;stroke-linecap:round;stroke-linejoin:round"
       aria-label="ItsZariep">
      <path
         style="font-weight:bold;font-family:Ubuntu;-inkscape-font-specification:'Ubuntu, Bold';fill:#91a666"
         d="M -7.6253588,121.31511 H 3.2330836 v 48.23654 H -7.6253588 Z"
         id="path4" />
      <path
         style="font-weight:bold;font-family:Ubuntu;-inkscape-font-specification:'Ubuntu, Bold'"
         d="m 8.0341964,123.8209 10.3712046,-1.67053 v 10.78884 h 12.459367 v 8.63107 H 18.405401 v 12.877 q 0,3.27145 1.113686,5.2204 1.183292,1.94896 4.663562,1.94896 1.67053,0 3.410665,-0.27843 1.80974,-0.34802 3.271454,-0.90487 l 1.461713,8.07423 q -1.879346,0.76566 -4.176324,1.3225 -2.296978,0.55685 -5.638037,0.55685 -4.24593,0 -7.030146,-1.11369 -2.784216,-1.18329 -4.454745,-3.20185 -1.67053,-2.08816 -2.366584,-5.01159 -0.6264486,-2.92342 -0.6264486,-6.4733 z m 36.4715866,38.28297 q 2.853821,0 4.037113,-0.55684 1.183292,-0.55684 1.183292,-2.15777 0,-1.25289 -1.531319,-2.15776 -1.531319,-0.97448 -4.663562,-2.15777 -2.436189,-0.90487 -4.454745,-1.87935 -1.948952,-0.97447 -3.34106,-2.29698 -1.392108,-1.3921 -2.157767,-3.27145 -0.76566,-1.87935 -0.76566,-4.52435 0,-5.1508 3.828297,-8.14383 3.828298,-2.99304 10.510416,-2.99304 3.341059,0 6.403697,0.62645 3.062637,0.55685 4.872378,1.2529 l -1.809741,8.07423 q -1.80974,-0.62645 -3.967507,-1.11369 -2.088162,-0.48724 -4.733168,-0.48724 -4.872378,0 -4.872378,2.71461 0,0.62645 0.208817,1.11369 0.208816,0.48724 0.835264,0.97448 0.626449,0.41763 1.67053,0.97447 1.113686,0.48724 2.784216,1.11369 3.410665,1.25289 5.638037,2.50579 2.227373,1.18329 3.48027,2.64501 1.322503,1.39211 1.809741,3.13224 0.556843,1.74014 0.556843,4.03711 0,5.42922 -4.106719,8.21344 -4.037113,2.78422 -11.484891,2.78422 -4.872378,0 -8.143832,-0.83527 -3.201848,-0.83526 -4.454745,-1.39211 l 1.740135,-8.42225 q 2.645005,1.04408 5.429221,1.67053 2.784216,0.55684 5.498827,0.55684 z"
         id="path5" />
      <path
         style="font-weight:bold;font-family:Ubuntu;-inkscape-font-specification:'Ubuntu, Bold';fill:#91a666"
         d="m 97.195457,128.83249 q -2.227373,2.29698 -5.29001,5.98607 -3.062638,3.61948 -6.334092,7.93501 -3.271453,4.31554 -6.473302,8.90949 -3.201848,4.59396 -5.707643,8.77028 h 24.570707 v 9.11831 H 60.026174 v -6.4733 q 1.948951,-3.54988 4.733167,-7.86541 2.853821,-4.38514 5.916459,-8.77028 3.062637,-4.45475 6.19488,-8.56147 3.201849,-4.17632 5.916459,-7.44777 H 61.13986 v -9.11831 h 36.055597 z"
         id="path6" />
      <path
         style="font-weight:bold;font-family:Ubuntu;-inkscape-font-specification:'Ubuntu, Bold'"
         d="m 113.62071,162.31269 q 1.53132,0 2.92343,-0.0696 1.39211,-0.0696 2.22737,-0.20881 v -7.86541 q -0.62645,-0.13921 -1.87934,-0.27842 -1.2529,-0.13921 -2.29698,-0.13921 -1.46172,0 -2.78422,0.20881 -1.2529,0.13921 -2.22737,0.62645 -0.97448,0.48724 -1.53132,1.3225 -0.55684,0.83527 -0.55684,2.08816 0,2.43619 1.60092,3.41067 1.67053,0.90487 4.52435,0.90487 z m -0.83526,-30.34796 q 4.59395,0 7.65659,1.04409 3.06264,1.04408 4.87238,2.99303 1.87934,1.94895 2.645,4.73317 0.76566,2.78421 0.76566,6.19488 v 21.57767 q -2.22737,0.48724 -6.19488,1.11369 -3.96751,0.69605 -9.60554,0.69605 -3.54988,0 -6.4733,-0.62645 -2.85383,-0.62645 -4.94199,-2.01855 -2.08816,-1.46172 -3.201846,-3.7587 -1.113687,-2.29697 -1.113687,-5.63803 0,-3.20185 1.252897,-5.42923 1.322503,-2.22737 3.480266,-3.54987 2.15777,-1.3225 4.94199,-1.87935 2.78421,-0.62644 5.77725,-0.62644 2.01855,0 3.54987,0.20881 1.60093,0.13921 2.5754,0.41763 v -0.97447 q 0,-2.64501 -1.60092,-4.24593 -1.60093,-1.60093 -5.56844,-1.60093 -2.645,0 -5.2204,0.41764 -2.5754,0.34802 -4.45475,1.04408 l -1.3225,-8.35265 q 0.90487,-0.27842 2.22737,-0.55684 1.39211,-0.34803 2.99304,-0.55685 1.60092,-0.27842 3.34106,-0.41763 1.80974,-0.20882 3.61948,-0.20882 z m 42.10957,10.16239 q -1.39211,-0.34802 -3.27145,-0.69605 -1.87935,-0.41763 -4.03712,-0.41763 -0.97447,0 -2.36658,0.20881 -1.3225,0.13921 -2.01856,0.34803 v 27.98137 h -10.3712 v -34.66349 q 2.78421,-0.97447 6.5429,-1.80974 3.8283,-0.90487 8.49186,-0.90487 0.83527,0 2.01856,0.13921 1.18329,0.0696 2.36658,0.27842 1.1833,0.13921 2.36659,0.41764 1.18329,0.20881 2.01855,0.55684 z m 12.38817,27.42453 h -10.3712 v -36.61244 h 10.3712 z m 0.97448,-47.19246 q 0,2.85382 -1.87935,4.52435 -1.80974,1.60092 -4.31553,1.60092 -2.5058,0 -4.38514,-1.60092 -1.80975,-1.67053 -1.80975,-4.52435 0,-2.85382 1.80975,-4.45475 1.87934,-1.67053 4.38514,-1.67053 2.50579,0 4.31553,1.67053 1.87935,1.60093 1.87935,4.45475 z m 1.73843,29.16466 q 0,-4.87238 1.46171,-8.49186 1.53132,-3.68908 3.96751,-6.12527 2.43619,-2.43619 5.56843,-3.68909 3.20185,-1.2529 6.54291,-1.2529 7.79581,0 12.32016,4.80278 4.52435,4.73316 4.52435,13.99068 0,0.90487 -0.0696,2.01856 -0.0696,1.04408 -0.13921,1.87935 h -23.52662 q 0.34802,3.20184 2.99303,5.08119 2.645,1.87935 7.09975,1.87935 2.85382,0 5.56843,-0.48724 2.78422,-0.55685 4.52435,-1.32251 l 1.39211,8.42226 q -0.83526,0.41763 -2.22737,0.83526 -1.39211,0.41764 -3.13225,0.69606 -1.67053,0.34802 -3.61948,0.55684 -1.94895,0.20882 -3.8979,0.20882 -4.94198,0 -8.63107,-1.46172 -3.61948,-1.46171 -6.05567,-3.9675 -2.36658,-2.5754 -3.54987,-6.05567 -1.11369,-3.48027 -1.11369,-7.51739 z m 24.36189,-3.96751 q -0.0696,-1.3225 -0.48724,-2.5754 -0.34802,-1.25289 -1.18329,-2.22737 -0.76566,-0.97447 -2.01856,-1.60092 -1.18329,-0.62645 -2.99303,-0.62645 -1.74013,0 -2.99303,0.62645 -1.2529,0.55684 -2.08816,1.53132 -0.83527,0.97447 -1.32251,2.29697 -0.41763,1.2529 -0.62644,2.5754 z m 36.19313,3.96751 q 0,-4.80277 -2.15777,-7.65659 -2.15777,-2.92343 -6.4037,-2.92343 -1.3921,0 -2.57539,0.13921 -1.1833,0.0696 -1.94896,0.20882 v 18.72385 q 0.97448,0.62645 2.5058,1.04408 1.60092,0.41763 3.20185,0.41763 7.37817,0 7.37817,-9.95357 z m 10.58002,-0.27842 q 0,4.24593 -1.04408,7.7262 -1.04408,3.48027 -3.06264,5.98606 -2.01856,2.5058 -5.01159,3.89791 -2.99303,1.39211 -6.89093,1.39211 -2.15777,0 -4.03712,-0.41764 -1.87934,-0.41763 -3.61948,-1.18329 v 13.78187 h -10.3712 v -48.23654 q 1.39211,-0.41763 3.20185,-0.76566 1.80974,-0.41763 3.75869,-0.69606 2.01856,-0.27842 4.03711,-0.41763 2.08816,-0.20881 3.96751,-0.20881 4.52435,0 8.07423,1.3921 3.54987,1.32251 5.98606,3.8283 2.43619,2.43619 3.68909,5.98607 1.3225,3.54987 1.3225,7.93501 z"
         id="path7" />
    </g>
  </g>
</svg>
